<?xml version="1.0" standalone="no"?>
<!DOCTYPE svg PUBLIC "-//W3C//DTD SVG 20010904//EN"
 "http://www.w3.org/TR/2001/REC-SVG-20010904/DTD/svg10.dtd">
<svg version="1.0" xmlns="http://www.w3.org/2000/svg"
 width="200.000000pt" height="200.000000pt" viewBox="0 0 200.000000 200.000000"
 preserveAspectRatio="xMidYMid meet">
<metadata>
Created by potrace 1.10, written by Peter Selinger 2001-2011
</metadata>
<g transform="translate(0.000000,200.000000) scale(0.100000,-0.100000)"
fill="#000000" stroke="none">
<path d="M166 1484 c-9 -8 -16 -24 -16 -34 0 -39 26 -50 120 -50 l89 0 10 -37
c6 -21 49 -195 97 -386 48 -192 93 -355 101 -363 22 -22 1045 -21 1063 1 7 9
60 203 117 432 l104 416 -20 21 c-17 16 -26 18 -48 10 -27 -9 -30 -19 -118
-374 -50 -201 -94 -377 -98 -392 l-7 -28 -460 0 -459 0 -10 38 c-6 20 -49 192
-96 382 -48 191 -93 353 -102 362 -23 25 -243 27 -267 2z m231 -32 c6 -4 53
-171 104 -372 76 -304 96 -370 117 -392 14 -16 34 -28 44 -28 11 0 16 -4 13
-10 -9 -15 -61 -12 -77 3 -7 8 -53 175 -102 373 -74 300 -93 363 -114 387 -14
15 -33 27 -41 27 -14 0 -14 1 -1 10 18 12 41 12 57 2z m1308 -400 c-48 -197
-92 -368 -99 -382 -13 -27 -60 -40 -79 -21 -8 8 -6 11 8 11 10 0 31 12 46 26
24 22 37 68 115 386 49 198 90 354 92 348 3 -7 -35 -172 -83 -368z"/>
<path d="M632 489 c-48 -14 -109 -80 -123 -131 -23 -89 12 -182 88 -229 57
-36 154 -34 210 3 62 41 88 90 88 168 0 77 -26 127 -85 166 -43 29 -125 39
-178 23z m26 -52 c-94 -42 -125 -137 -68 -215 37 -51 57 -62 114 -62 96 0 166
113 122 198 -17 33 -49 63 -84 79 -15 6 -21 12 -14 12 28 2 82 -32 102 -64 13
-22 20 -50 20 -85 0 -35 -7 -63 -20 -85 -55 -89 -216 -85 -262 6 -23 44 -23
114 0 159 17 34 71 71 102 69 8 0 3 -6 -12 -12z m91 -51 c67 -35 65 -143 -4
-174 -51 -23 -107 -7 -131 39 -47 91 44 182 135 135z"/>
<path d="M1432 489 c-48 -14 -109 -80 -123 -131 -23 -89 12 -182 88 -229 57
-36 154 -34 210 3 62 41 88 90 88 168 0 77 -26 127 -85 166 -43 29 -125 39
-178 23z m26 -52 c-94 -42 -125 -137 -68 -215 37 -51 57 -62 114 -62 96 0 166
113 122 198 -17 33 -49 63 -84 79 -15 6 -21 12 -14 12 28 2 82 -32 102 -64 13
-22 20 -50 20 -85 0 -94 -57 -150 -152 -150 -89 0 -148 60 -148 150 0 25 8 61
18 80 17 34 71 71 102 69 8 0 3 -6 -12 -12z m91 -51 c67 -35 65 -143 -4 -174
-51 -23 -107 -7 -131 39 -47 91 44 182 135 135z"/>
</g>
</svg>
